<?xml version="1.0" encoding="UTF-8"?><svg xmlns="http://www.w3.org/2000/svg" xmlns:xlink="http://www.w3.org/1999/xlink" viewBox="0 0 1200 1200"><defs><style>.cls-1{fill:url(#linear-gradient-12);}.cls-1,.cls-2,.cls-3,.cls-4,.cls-5,.cls-6,.cls-7,.cls-8,.cls-9,.cls-10,.cls-11,.cls-12,.cls-13,.cls-14,.cls-15,.cls-16,.cls-17,.cls-18,.cls-19,.cls-20,.cls-21,.cls-22,.cls-23,.cls-24,.cls-25,.cls-26,.cls-27{stroke-width:0px;}.cls-28{opacity:.7;}.cls-2{fill:url(#linear-gradient-17);}.cls-3{fill:url(#linear-gradient-19);}.cls-4{fill:url(#linear-gradient);}.cls-5{fill:url(#linear-gradient-21);}.cls-6{fill:url(#linear-gradient-6);}.cls-29{stroke:#525a6a;}.cls-29,.cls-11,.cls-30{fill:none;}.cls-29,.cls-30{stroke-miterlimit:10;stroke-width:2px;}.cls-7,.cls-12,.cls-22{fill:#151c2b;}.cls-8{fill:url(#linear-gradient-15);}.cls-9{fill:url(#linear-gradient-11);}.cls-10{fill:url(#linear-gradient-5);}.cls-12{opacity:.5;}.cls-13{fill:url(#linear-gradient-13);}.cls-14{fill:url(#linear-gradient-16);}.cls-15{fill:#fff;}.cls-16{fill:url(#linear-gradient-20);}.cls-17{fill:url(#linear-gradient-14);}.cls-18{fill:url(#linear-gradient-2);}.cls-19{fill:url(#linear-gradient-7);}.cls-20{fill:url(#linear-gradient-3);}.cls-31{clip-path:url(#clippath);}.cls-21{fill:url(#linear-gradient-9);}.cls-22{opacity:.3;}.cls-30{stroke:#727c92;}.cls-23{fill:url(#linear-gradient-8);}.cls-24{fill:url(#linear-gradient-18);}.cls-25{fill:#a3ea2a;}.cls-26{fill:url(#linear-gradient-10);}.cls-27{fill:url(#linear-gradient-4);}</style><linearGradient id="linear-gradient" x1="566.06" y1="670.39" x2="647.6" y2="733.29" gradientUnits="userSpaceOnUse"><stop offset=".16" stop-color="#525a6a"/><stop offset=".31" stop-color="#626a78"/><stop offset=".59" stop-color="#8d949f"/><stop offset="1" stop-color="#d3d7de"/><stop offset="1" stop-color="#d4d8df"/></linearGradient><linearGradient id="linear-gradient-2" x1="773.64" y1="538.68" x2="671.11" y2="694.38" gradientUnits="userSpaceOnUse"><stop offset=".16" stop-color="#1c2538"/><stop offset=".27" stop-color="#2c3547"/><stop offset=".48" stop-color="#575f6e"/><stop offset=".78" stop-color="#9da2ad"/><stop offset="1" stop-color="#d4d8df"/></linearGradient><linearGradient id="linear-gradient-3" x1="505.44" y1="681.49" x2="600" y2="681.49" xlink:href="#linear-gradient"/><linearGradient id="linear-gradient-4" x1="787.51" y1="579.78" x2="695.1" y2="725.35" xlink:href="#linear-gradient-2"/><linearGradient id="linear-gradient-5" x1="941.58" y1="573.22" x2="936.49" y2="461.1" gradientUnits="userSpaceOnUse"><stop offset="0" stop-color="#727c92"/><stop offset=".19" stop-color="#768095"/><stop offset=".4" stop-color="#838c9f"/><stop offset=".61" stop-color="#99a1b1"/><stop offset=".84" stop-color="#b8bec9"/><stop offset="1" stop-color="#d4d8df"/></linearGradient><linearGradient id="linear-gradient-6" x1="305.13" y1="514.1" x2="381.58" y2="370.13" xlink:href="#linear-gradient-5"/><linearGradient id="linear-gradient-7" x1="471.79" y1="422.08" x2="513.84" y2="336.72" xlink:href="#linear-gradient-5"/><linearGradient id="linear-gradient-8" x1="851.48" y1="486.38" x2="885.88" y2="394.65" xlink:href="#linear-gradient-5"/><linearGradient id="linear-gradient-9" x1="390.54" y1="797.23" x2="488.01" y2="278.23" gradientUnits="userSpaceOnUse"><stop offset=".38" stop-color="#727c92"/><stop offset=".42" stop-color="#798297"/><stop offset=".48" stop-color="#8c95a6"/><stop offset=".55" stop-color="#acb3c0"/><stop offset=".62" stop-color="#d4d8df"/><stop offset=".81" stop-color="#727c92"/></linearGradient><linearGradient id="linear-gradient-10" x1="336.2" y1="811.17" x2="250.84" y2="659.56" xlink:href="#linear-gradient-5"/><clipPath id="clippath"><path class="cls-11" d="M18.53,1044.74l10.26-23.95s31.93-151.66,181.31-291.91c0,0,95.78-80.96,86.66-76.4s85.52-92.36,85.52-92.36c0,0,127.71-54.73,160.78-85.52l56.66,6.84-145.6,229.2S183.88,1009.39,18.53,1044.74Z"/></clipPath><linearGradient id="linear-gradient-11" x1="266.77" y1="776.47" x2="191.61" y2="706.4" gradientUnits="userSpaceOnUse"><stop offset="0" stop-color="#525a6a"/><stop offset=".16" stop-color="#565e6e"/><stop offset=".34" stop-color="#636b79"/><stop offset=".53" stop-color="#79808d"/><stop offset=".72" stop-color="#989ea9"/><stop offset=".91" stop-color="#bfc4cc"/><stop offset="1" stop-color="#d4d8df"/></linearGradient><linearGradient id="linear-gradient-12" x1="323.87" y1="694.82" x2="255.84" y2="620.83" gradientUnits="userSpaceOnUse"><stop offset=".48" stop-color="#151c2b"/><stop offset=".55" stop-color="#19202f"/><stop offset=".62" stop-color="#262d3b"/><stop offset=".7" stop-color="#3c4350"/><stop offset=".78" stop-color="#5b616d"/><stop offset=".87" stop-color="#838893"/><stop offset=".95" stop-color="#b3b7c0"/><stop offset="1" stop-color="#d4d8df"/></linearGradient><linearGradient id="linear-gradient-13" x1="562.91" y1="829.6" x2="660.38" y2="310.6" gradientUnits="userSpaceOnUse"><stop offset=".38" stop-color="#727c92"/><stop offset=".42" stop-color="#7a8498"/><stop offset=".49" stop-color="#929aab"/><stop offset=".57" stop-color="#b8bec9"/><stop offset=".62" stop-color="#d4d8df"/><stop offset=".82" stop-color="#727c92"/></linearGradient><linearGradient id="linear-gradient-14" x1="342.5" y1="674.3" x2="303.92" y2="642.95" gradientUnits="userSpaceOnUse"><stop offset=".48" stop-color="#151c2b"/><stop offset=".55" stop-color="#19202f"/><stop offset=".58" stop-color="#1e2534"/><stop offset=".64" stop-color="#2e3543"/><stop offset=".74" stop-color="#59606c"/><stop offset=".89" stop-color="#9fa4ad"/><stop offset="1" stop-color="#d4d8df"/></linearGradient><linearGradient id="linear-gradient-15" x1="572.99" y1="441.88" x2="524.48" y2="371.82" xlink:href="#linear-gradient"/><linearGradient id="linear-gradient-16" x1="766.38" y1="479.89" x2="704.4" y2="402.42" xlink:href="#linear-gradient"/><linearGradient id="linear-gradient-17" x1="682.48" y1="542.97" x2="658.43" y2="521.45" gradientUnits="userSpaceOnUse"><stop offset=".16" stop-color="#525a6a"/><stop offset=".31" stop-color="#626a78"/><stop offset=".59" stop-color="#8d949f"/><stop offset="1" stop-color="#d3d7de"/><stop offset="1" stop-color="#d4d8df"/></linearGradient><linearGradient id="linear-gradient-18" x1="646.19" y1="527.21" x2="605.68" y2="495.56" xlink:href="#linear-gradient-2"/><linearGradient id="linear-gradient-19" x1="505.53" y1="498.32" x2="482.75" y2="470.47" xlink:href="#linear-gradient-2"/><linearGradient id="linear-gradient-20" x1="417.49" y1="514.23" x2="382.05" y2="463.6" xlink:href="#linear-gradient-2"/><linearGradient id="linear-gradient-21" x1="275.17" y1="584.1" x2="212.83" y2="593.3" gradientUnits="userSpaceOnUse"><stop offset=".16" stop-color="#727c92"/><stop offset=".3" stop-color="#747e94"/><stop offset=".4" stop-color="#7d879b"/><stop offset=".48" stop-color="#8d95a7"/><stop offset=".55" stop-color="#a2a9b8"/><stop offset=".62" stop-color="#bec3ce"/><stop offset=".67" stop-color="#d4d8df"/></linearGradient></defs><g id="Layer_7"><path class="cls-4" d="M568.23,668.43s-28.69,27.44-15.66,57.67c0,0,44.94,9.72,84.85-66.77l-69.18,9.11Z"/><path class="cls-18" d="M704.92,587.48l19.19,45.29s-15.03,26.62-11.85,35.65,24.31-26.45,24.31-26.45l44.26-58.66-28.32-43.99-47.59,48.16Z"/><polygon class="cls-20" points="505.44 682.72 569.54 694.55 600 668.43 505.44 682.72"/><path class="cls-7" d="M343.46,803.64s2.77,23.66,17.16,22.34,73.54-105.15,73.54-105.15l-90.69,82.81Z"/><path class="cls-7" d="M202.82,923.25c3.94,2.63,13.97,15.77,22.1,13.14s77.01-75.21,77.01-75.21l-99.12,62.07Z"/><path class="cls-27" d="M780.84,576.25s-73.15,100.55-74.03,103.72c-1.11,4.01-1.38,6.72.44,16.13,0,0,9.47,2.11,19.49-10.53,0,0,75.83-126.4,80.88-114.57s-26.78,5.26-26.78,5.26Z"/><path class="cls-7" d="M493.47,696.23s-37.21,47.98-50.71,53.36-23.98,18.12-23.98,18.12l-19.5,22.49s-3.64,8.11-5.65-3.15,25.16-47.08,25.16-47.08c0,0,40.08-60.75,44.78-58.49s29.91,14.75,29.91,14.75Z"/><path class="cls-7" d="M409.77,765.47l50.23,16.49,7.72-8.52s-26.55-28.76-28.97-36.21-28.97,28.24-28.97,28.24Z"/><path class="cls-7" d="M527.44,685.1s38.58,7.37,40.05,6.39,1.23-18.18,1.23-18.18l-42.92,12.29"/></g><g id="Layer_4"><path class="cls-10" d="M689.03,493.98l485.76-19.38s21.67,1.14,6.84,41.05l-394.54,71.84-17.1-11.4-36.49,11.4-44.47-93.5Z"/><path class="cls-6" d="M305.89,486h-33.07s-57.01-116.31-57.01-126.57c0,0,28.51-22.81,45.04-23.95l244.59,124.29-199.55,26.23Z"/><path class="cls-19" d="M497.46,456.35s-71.84-83.24-71.84-98.07c0,0,37.63-11.4,49.03-9.12l86.66,25.09-10.26,44.47-53.59,37.63"/><path class="cls-23" d="M724.11,492.58s244.28-29.39,267.09-45.35c0,0-15.96-18.24-26.23-20.53l-124.29-15.96-50.17,17.1-66.4,64.74"/></g><g id="Layer_3"><path class="cls-21" d="M267.12,659.32l-42.19-11.4s25.09-23.95,0-92.36c0,0,75.26-85.52,109.47-91.22s99.21-19.38,99.21-19.38l63.86,11.4-11.2-26.03,51.11-44.67,87.8,6.84,51.31,5.7-117.45,99.21-291.91,161.92Z"/><path class="cls-26" d="M18.53,1044.74l10.26-23.95s31.93-151.66,181.31-291.91c0,0,95.78-80.96,86.66-76.4s85.52-92.36,85.52-92.36c0,0,127.71-54.73,160.78-85.52l56.66,6.84-145.6,229.2S183.88,1009.39,18.53,1044.74Z"/><path class="cls-7" d="M249.37,654.52l82.34-83.94s28.63,4.59,26.08,4.59-104.86,80.32-104.86,80.32l-3.56-.96Z"/><g class="cls-31"><path class="cls-9" d="M18.53,1044.74s177.47-189.22,206.39-218.7,267.58-254.2,294.37-322.97l-153.14,62.17s-265.2,103.92-265.2,121.76S-.54,1036.08-.54,1036.08l19.07,8.65"/></g><path class="cls-1" d="M186.16,765.37s74.12-173.32,196.13-205.25c0,0,31.93-2.28,43.33,31.93,0,0-148.24,163.06-168.76,173.32s-28.51,11.4-28.51,11.4l-42.19-11.4Z"/><path class="cls-12" d="M769.99,576.08s9.08-24.13,0-30.5-33.41-33.12-33.41-33.12l-30.65-10.32,36.95,82.41,27.11-8.47Z"/><path class="cls-13" d="M418.78,701.51l180.95-220.08-19.07-2.3,95.82-80.94,111.75,19.38,19.38,4.56-38.77,66.14-59.3,5.7s45.61,33.07,45.61,55.87-13.68,42.19-13.68,42.19c0,0-18.24-2.5-23.95,8.44s-43.33,65.64-72.98,67.94-120.87,13.7-137.98,26.24-21.67,18.24-21.67,18.24l-66.14-11.4Z"/><path class="cls-12" d="M224.93,647.92s104.22-98.28,118.54-122.03c0,0-66.95,88.18-108.86,124.65l-9.68-2.62Z"/><path class="cls-12" d="M484.91,712.91s92.28-112.84,92.41-125.43c0,0-91.56,117.1-103.05,123.6l10.64,1.83Z"/><polygon class="cls-12" points="1181.63 515.64 780.84 570.21 787.09 587.48 1181.63 515.64"/><polygon class="cls-12" points="272.82 486 301.94 474.59 296.36 486 272.82 486"/><path class="cls-7" d="M497.24,605.87s38.29,8.14,39.19,8.14-78.27,94.29-78.27,94.29l-39.39-6.79,78.47-95.64"/><path class="cls-17" d="M267.02,712.91s31.82-83.78,107.04-112.91c0,0-28.26,50.77-107.04,112.91Z"/></g><g id="Layer_5"><path class="cls-8" d="M467.72,440.6l62-50.27s12.66-12.78,31.6-16.09,38.69-11.48,38.69-11.48c0,0,34.73-4,37.41,31.08l-37.68,28.5s-84.91,16.36-86.08,24.53-16.19,9.46-16.19,9.46l-29.74-15.75Z"/><path class="cls-14" d="M665.53,474.59s25.7-39.39,31.54-42.9,57.25-33.5,57.25-33.5l19.86-7.39s31.82-1.59,33.44,31.33l-43.95,70.44-54.12,1.4s-26.5-16.21-44.02-19.38Z"/></g><g id="Layer_6"><path class="cls-12" d="M534.68,420.01s18.41-9.23,22.64,11.49l95.75-13.54,52.85,8.52,22.56-13.2,2.39-5.65-93.46-13.78s1.06-29.25-31.46-31.13-71.27,57.29-71.27,57.29Z"/><path class="cls-12" d="M712.26,451.66s40.55-8.79,54.09,36.62h2.5s179.72-45.41,196.13-61.58c0,0,7.66.98,0,0l-124.29-15.96-33.07,11.4s.6-27.67-28.45-31.07,0,0,0,0l-66.9,60.59"/><path class="cls-7" d="M534.68,420.01l54.91-214.97,30.38-12.85-6.77,18.69-7.25,151.83s-54.91,54.96-71.27,57.29Z"/><g class="cls-28"><path class="cls-12" d="M357.79,502.14s12.33,3.55,35.83-2.3,40.54-13.84,40.54-13.84l13.67-9.31-20.22-9.15-69.82,34.61Z"/><path class="cls-12" d="M463.55,499.84s39.16,2.43,50.2-10.68l17.1-14.56-11.56-12.27-55.75,37.51Z"/><path class="cls-12" d="M593.29,525.89s29.44,3.7,39.49-3.4,25.66-24.48,25.66-24.48l-15.59-12.01-49.55,39.89Z"/><path class="cls-12" d="M643.3,560.08s31.18,3.89,45.72-4.53,29.09-26.22,29.09-26.22l-16.46-10.74-58.35,41.49Z"/></g><path class="cls-7" d="M712.26,451.66l95.35-225.58,21.47-14.02-45.56,173.59s-49.07,62.6-71.27,66.01Z"/><path class="cls-7" d="M661.96,409.49l31.8,4.13s15.04-1.68,18.51-9.22,3.46-22,3.46-22c0,0-27.75-6.36-34.69-4.62s-23.7,23.06-22.55,24.82,3.47,6.89,3.47,6.89Z"/><path class="cls-2" d="M643.3,560.08s-1.04-17.74,0-20.76,30.22-29.59,30.22-29.59c0,0,18.24-9.38,21.88-7.29s6.25,16.15,6.25,16.15c0,0-26.51,31.26-29.41,31.26s-28.95,10.23-28.95,10.23Z"/><path class="cls-24" d="M593.29,525.89l2.6-13.03s31.26-33.35,38.03-32.82,8.92,5.96,8.92,5.96c0,0-31.84,35.17-36.01,36.49s-13.54,3.4-13.54,3.4Z"/><path class="cls-3" d="M463.55,499.84s1.04-9.97,4.17-13.84,37.72-26.23,37.72-26.23l13.86,2.55-8.34,8.86s-32.3,26.57-47.41,28.66Z"/><path class="cls-16" d="M357.79,502.14s8.86-21.07,11.46-22.11,32.3-20.26,32.3-20.26c0,0,21.88-4.71,26.05-3.42s0,11.19,0,11.19c0,0-32.78,23.71-38.79,26.44s-23.21,12.03-31.02,8.16Z"/><path class="cls-22" d="M599.73,481.43s-29.14,67.69-32.46,70.13l-3.32,2.44s19.19,23.44,17.89,46c0,0-11.05,12.61-4.52,19.24s10.07,28.3,22.68,31.29,52.11,4.09,65.53-3.65,46.73-54.18,46.73-54.18l29.22-.66s-17.67-1.83-22.89,6.77-31.64,54.58-65.87,67.79c0,0-.66,1.89-30.19,4s-103.4,14.33-115.95,24.07c0,0-19.53,14.9-21.67,18.24l-66.14-11.4,180.95-220.08Z"/></g><g id="Layer_8"><line class="cls-29" x1="301.94" y1="474.59" x2="224.93" y2="352.68"/><path class="cls-29" d="M534.68,420.01s18.48-6.83,26.63,11.49l116.64,24.62s17.16-20.3,34.31-4.47"/><path class="cls-29" d="M774.02,560.08s406.3-56.99,411.45-57.12"/><path class="cls-25" d="M587.8,212.06v-10.45s47.08-25.38,44.98-19.52-17.43,22.88-17.43,22.88l-27.54,7.1"/><path class="cls-25" d="M803.31,236.27s-3-5.43,4.31-10.2,26.74-17.97,26.74-17.97l-8.61,16.71-18.13,11.45"/><path class="cls-25" d="M341.91,710.8s36.45,2.11,76.86,37.33l11.45-11.93s-44.55-38.07-77.13-36.7l-11.18,11.3Z"/><path class="cls-29" d="M108.54,848.52s37.14-10.29,70.66,25.47,19.33,73.3,19.33,73.3"/><line class="cls-29" x1="438.74" y1="354.63" x2="491.43" y2="421.38"/><line class="cls-29" x1="974.3" y1="431.51" x2="780.84" y2="465.06"/><path class="cls-7" d="M283.97,841.51l.58,3.6-3.41,2.98,2.46,15.15-2.55,2.22-2.46-15.15-3.41,2.98-.58-3.6,9.37-8.17Z"/><path class="cls-7" d="M292.43,834.13l2.55-2.22,3.04,18.74-2.55,2.22-1.29-7.95-4.28,3.73,1.29,7.95-2.55,2.22-3.04-18.74,2.55-2.22,1.16,7.17,4.28-3.73-1.16-7.17Z"/><path class="cls-7" d="M300.59,827.01c.29.42.64.96,1.04,1.61.4.65.82,1.37,1.26,2.14.44.78.89,1.58,1.33,2.4.45.83.86,1.6,1.26,2.33.09-1.15.18-2.37.28-3.67.1-1.3.21-2.58.32-3.84.11-1.26.23-2.44.34-3.54.11-1.1.22-2.03.32-2.8l2.32-2.02c.31,1.15.64,2.45.98,3.92.34,1.46.68,2.99,1.03,4.6.34,1.61.68,3.22,1.01,4.85.33,1.62.64,3.16.92,4.6l-2.48,2.16c-.33-1.79-.69-3.74-1.1-5.84-.4-2.1-.84-4.19-1.3-6.28-.07.93-.16,1.96-.25,3.09-.09,1.13-.18,2.26-.26,3.38-.09,1.13-.17,2.2-.25,3.23-.08,1.03-.15,1.91-.21,2.64l-1.78,1.55c-.25-.46-.55-1.02-.91-1.66s-.72-1.33-1.11-2.04c-.38-.71-.77-1.43-1.16-2.14-.39-.71-.74-1.36-1.06-1.94.25,2.28.51,4.51.81,6.7.29,2.19.57,4.21.83,6.06l-2.48,2.16c-.2-1.52-.4-3.14-.61-4.87-.21-1.73-.42-3.46-.62-5.19-.2-1.73-.38-3.41-.54-5.03-.16-1.62-.28-3.1-.38-4.44l2.43-2.12Z"/><path class="cls-30" d="M226.93,691.58s39.26-35.32,82.21,24.9"/><path class="cls-30" d="M305.89,600.87s46.78-29.36,87.63,26.17"/><path class="cls-5" d="M224.93,647.92l61.55-59.71-39.51-56.34-22.03,23.68s25.4,59.52,0,92.36Z"/></g><g id="Layer_9"><path id="path32" class="cls-15" d="M783.06,332.34l.44-3.18-.49.95-.17-.51.86-1.62.47-.38-.6,4.33-.51.41"/><path id="path34" class="cls-15" d="M785.47,328.46c.02-.13.03-.28.05-.44.01-.16.02-.3.02-.42,0-.12-.02-.21-.05-.28-.03-.06-.08-.07-.14-.01s-.13.15-.19.28c-.06.13-.11.28-.15.44-.04.16-.08.32-.11.49-.03.17-.06.32-.07.46s-.04.29-.05.45c-.01.16-.02.3-.02.42,0,.12.02.21.05.27.03.06.08.06.15.01s.13-.15.18-.28c.06-.13.1-.27.15-.43.04-.16.08-.32.11-.5.03-.17.06-.33.07-.47ZM786,328.04c-.04.31-.1.61-.17.91-.07.3-.15.59-.25.85-.1.27-.21.5-.33.71-.12.21-.26.38-.42.5s-.28.17-.37.13c-.09-.04-.16-.13-.2-.29-.04-.15-.06-.36-.05-.61,0-.25.03-.53.08-.84s.1-.61.17-.91c.07-.3.15-.58.25-.84.1-.26.21-.5.33-.71.13-.21.26-.38.42-.5s.28-.17.37-.13c.09.04.16.13.19.28.04.15.06.35.05.6,0,.25-.03.53-.07.83"/><path id="path36" class="cls-15" d="M788.58,327.88l.44-3.18-.49.95-.17-.51.86-1.62.47-.38-.6,4.33-.51.41"/><path id="path38" class="cls-15" d="M790.99,324c.02-.13.03-.28.05-.44.01-.16.02-.3.02-.42,0-.12-.02-.21-.05-.28-.03-.06-.08-.07-.14-.01s-.13.15-.19.28c-.06.13-.11.28-.15.44-.04.16-.08.32-.11.49-.03.17-.06.32-.07.46s-.04.29-.05.45c-.01.16-.02.3-.02.42,0,.12.02.21.05.27.03.06.08.06.15.01s.13-.15.18-.28c.06-.13.1-.27.15-.43.04-.16.08-.32.11-.5.03-.17.06-.33.07-.47ZM791.52,323.57c-.04.31-.1.61-.17.91-.07.3-.15.59-.25.85-.1.27-.21.5-.33.71-.12.21-.26.38-.42.5s-.28.17-.37.13c-.09-.04-.16-.13-.2-.29-.04-.15-.06-.36-.05-.61,0-.25.03-.53.08-.84s.1-.61.17-.91c.07-.3.15-.58.25-.84s.21-.5.33-.71c.13-.21.26-.38.42-.5s.28-.17.37-.13c.09.04.16.13.19.28.04.15.06.35.05.6,0,.25-.03.53-.07.83"/><path id="path40" class="cls-15" d="M782.07,339.2l.44-3.18-.49.95-.17-.51.86-1.63.47-.38-.6,4.33-.51.41"/><path id="path42" class="cls-15" d="M783.88,337.74l.44-3.18-.49.95-.17-.51.86-1.63.47-.38-.6,4.33-.51.41"/><path id="path44" class="cls-15" d="M785.68,336.28l.44-3.18-.49.95-.17-.51.86-1.62.47-.38-.6,4.33-.51.41"/><path id="path46" class="cls-15" d="M788.18,332.32c.02-.13.03-.28.05-.44.01-.16.02-.3.02-.42,0-.12-.02-.21-.05-.28-.03-.06-.08-.07-.14-.01s-.13.15-.19.28c-.06.13-.11.28-.15.44-.04.16-.08.32-.11.49-.03.17-.06.32-.07.46s-.04.29-.05.45c-.01.16-.02.3-.02.42,0,.12.02.21.05.27.03.06.08.06.15,0s.13-.15.18-.28c.06-.13.1-.27.15-.43.04-.16.08-.32.11-.5.03-.17.06-.33.08-.47ZM788.71,331.9c-.04.31-.1.61-.17.91-.07.3-.15.59-.25.85-.1.26-.21.5-.33.71-.12.21-.26.38-.42.5s-.28.17-.37.13c-.09-.04-.16-.13-.2-.29-.04-.15-.06-.36-.05-.61,0-.25.03-.53.07-.84s.1-.61.17-.91c.07-.3.15-.58.25-.84.1-.26.21-.5.33-.71.13-.21.26-.38.42-.5s.28-.17.37-.13c.09.04.16.13.19.28.04.15.06.35.05.6,0,.25-.03.53-.07.83"/><path id="path48" class="cls-15" d="M782.44,343.21l.32-2.31-.36.69-.12-.37.62-1.18.34-.28-.43,3.14-.37.3"/><path id="path50" class="cls-15" d="M785.05,341.1l.32-2.31-.36.69-.12-.37.62-1.18.34-.28-.43,3.14-.37.3"/><path id="path52" class="cls-15" d="M781.61,342.48c.01-.1.03-.2.04-.32.01-.11.01-.21.01-.3,0-.09-.01-.16-.03-.2-.02-.04-.06-.05-.1,0s-.09.11-.13.2c-.04.1-.08.2-.11.32-.03.12-.06.24-.08.36-.02.12-.04.23-.05.33s-.03.21-.04.32c-.01.11-.01.22-.01.31,0,.09.02.15.04.2.02.04.06.05.11,0s.09-.11.13-.2c.04-.09.08-.2.11-.31.03-.12.06-.24.08-.36.02-.12.04-.24.05-.34ZM782,342.17c-.03.22-.07.44-.12.66-.05.22-.11.43-.18.62-.07.19-.15.37-.24.52-.09.15-.19.27-.3.36s-.2.12-.27.1c-.07-.03-.11-.1-.14-.21-.03-.11-.04-.26-.03-.44,0-.18.02-.39.05-.61s.07-.44.12-.66c.05-.22.11-.42.18-.61.07-.19.15-.36.24-.51.09-.15.19-.27.3-.36s.2-.12.27-.1c.07.03.11.09.14.2.03.11.04.26.03.44,0,.18-.02.38-.05.61"/><path id="path54" class="cls-15" d="M784.24,340.35c.01-.1.03-.2.04-.32.01-.11.01-.21.01-.3,0-.09-.01-.16-.03-.2-.02-.04-.06-.05-.1,0s-.09.11-.13.2c-.04.1-.08.2-.11.32-.03.12-.06.24-.08.36-.02.12-.04.23-.05.33s-.03.21-.04.32c-.01.12-.01.22-.01.31,0,.09.02.15.04.2.02.04.06.05.11,0s.09-.11.13-.2c.04-.09.08-.2.11-.31.03-.12.06-.24.08-.36.02-.12.04-.24.05-.34ZM784.63,340.04c-.03.22-.07.44-.12.66-.05.22-.11.43-.18.62-.07.19-.15.37-.24.52-.09.15-.19.27-.3.36s-.2.12-.27.1c-.07-.03-.11-.1-.14-.21-.03-.11-.04-.26-.03-.44,0-.18.02-.39.05-.61s.07-.44.12-.66c.05-.22.11-.42.18-.61.07-.19.15-.36.24-.51.09-.15.19-.27.3-.36s.2-.12.27-.1c.07.03.11.09.14.2.03.11.04.26.03.44,0,.18-.02.38-.05.61"/><path id="path56" class="cls-15" d="M789.4,337.59l.32-2.31-.36.69-.12-.37.62-1.18.34-.28-.43,3.14-.37.3"/><path id="path58" class="cls-15" d="M788.59,336.84c.01-.1.03-.2.04-.32.01-.11.01-.21.01-.3,0-.09-.01-.16-.03-.2-.02-.04-.06-.05-.1,0s-.09.11-.13.2c-.04.1-.08.2-.11.32-.03.12-.06.24-.08.36-.02.12-.04.23-.05.33s-.03.21-.04.32c-.01.11-.01.22-.01.31,0,.09.02.15.04.2.02.04.06.05.11,0s.09-.11.13-.2c.04-.09.08-.2.11-.31.03-.12.06-.24.08-.36.02-.12.04-.24.05-.34ZM788.97,336.53c-.03.22-.07.44-.12.66-.05.22-.11.43-.18.62-.07.19-.15.37-.24.52-.09.15-.19.27-.3.36s-.2.12-.27.1c-.07-.03-.11-.1-.14-.21-.03-.11-.04-.26-.03-.44,0-.18.02-.39.05-.61s.07-.44.12-.66c.05-.22.11-.42.18-.61.07-.19.15-.36.24-.51.09-.15.19-.27.3-.36s.2-.12.27-.1c.07.03.11.09.14.2.03.11.04.26.03.44,0,.18-.02.38-.05.61"/><path id="path60" class="cls-15" d="M787.46,342.45l.32-2.31-.36.69-.12-.37.62-1.18.34-.28-.43,3.14-.37.3"/><path id="path62" class="cls-15" d="M786.64,341.7c.01-.1.03-.2.04-.32.01-.11.01-.21.01-.3,0-.09-.01-.16-.03-.2-.02-.04-.06-.05-.1,0s-.09.11-.13.2c-.04.1-.08.2-.11.32-.03.12-.06.24-.08.36-.02.12-.04.23-.05.33s-.03.21-.04.32c-.01.11-.01.22-.01.31,0,.09.02.15.04.2.02.04.06.05.11,0s.09-.11.13-.2c.04-.09.08-.2.11-.31.03-.12.06-.24.08-.36.02-.12.04-.24.05-.34ZM787.03,341.39c-.03.22-.07.44-.12.66-.05.22-.11.43-.18.62-.07.19-.15.36-.24.52-.09.15-.19.27-.3.36s-.2.12-.27.1c-.07-.03-.11-.1-.14-.21-.03-.11-.04-.26-.03-.44,0-.18.02-.39.05-.61s.07-.44.12-.66c.05-.22.11-.42.18-.61.07-.19.15-.36.24-.51.09-.15.19-.27.3-.36s.2-.12.27-.1c.07.03.11.09.14.2.03.11.04.26.03.44,0,.18-.02.38-.05.61"/><path id="path64" class="cls-15" d="M781.41,347.29l.22-1.6-.25.48-.08-.26.43-.82.24-.19-.3,2.18-.26.21"/><path id="path66" class="cls-15" d="M780.85,346.77c0-.07.02-.14.03-.22,0-.08,0-.15,0-.21,0-.06,0-.11-.02-.14-.01-.03-.04-.03-.07,0s-.07.07-.09.14c-.03.07-.05.14-.07.22-.02.08-.04.16-.06.25-.02.09-.03.16-.04.23s-.02.14-.03.22c0,.08-.01.15,0,.21,0,.06.01.11.03.14.02.03.04.03.07,0s.06-.07.09-.14c.03-.06.05-.14.07-.22.02-.08.04-.16.06-.25.02-.09.03-.16.04-.23ZM781.12,346.56c-.02.15-.05.31-.08.46-.03.15-.08.29-.13.43-.05.13-.1.25-.17.36-.06.11-.13.19-.21.25s-.14.08-.19.07c-.05-.02-.08-.07-.1-.14-.02-.08-.03-.18-.02-.31,0-.13.02-.27.04-.42s.05-.31.08-.46c.03-.15.08-.29.13-.42.05-.13.11-.25.17-.36.06-.11.13-.19.21-.25s.14-.08.18-.07c.05.02.08.06.1.14.02.08.03.18.02.3,0,.13-.02.27-.04.42"/><path id="path68" class="cls-15" d="M784.24,347.49l.22-1.6-.25.48-.08-.26.43-.82.24-.19-.3,2.18-.26.21"/><path id="path70" class="cls-15" d="M783.68,346.97c0-.07.02-.14.02-.22,0-.08.01-.15,0-.21s0-.11-.02-.14c-.01-.03-.04-.03-.07,0s-.07.07-.09.14c-.03.07-.05.14-.07.22-.02.08-.04.16-.06.25-.02.09-.03.16-.04.23s-.02.14-.03.22c0,.08-.01.15,0,.21,0,.06.01.11.03.14.01.03.04.03.07,0s.07-.07.09-.14c.03-.07.05-.14.07-.22.02-.08.04-.16.06-.25.02-.09.03-.16.04-.23ZM783.95,346.76c-.02.15-.05.31-.08.46-.03.15-.08.29-.12.43-.05.13-.1.25-.17.36-.06.11-.13.19-.21.25s-.14.09-.18.07c-.05-.02-.08-.07-.1-.14-.02-.08-.03-.18-.02-.31,0-.13.02-.27.04-.42s.05-.31.08-.46c.03-.15.08-.29.12-.42.05-.13.1-.25.17-.36.06-.11.13-.19.21-.25s.14-.09.18-.07c.05.02.08.06.1.14.02.08.03.18.02.3,0,.13-.02.27-.04.42"/><path id="path72" class="cls-15" d="M789.25,339.6c.01-.1.03-.2.04-.32.01-.11.01-.21.01-.3,0-.09-.01-.16-.03-.2-.02-.04-.06-.05-.1,0s-.09.11-.13.2c-.04.1-.08.2-.11.32-.03.12-.06.24-.08.36-.02.12-.04.23-.05.33s-.03.21-.04.32c-.01.11-.01.22-.01.31,0,.09.02.15.04.2.02.04.06.05.11,0s.09-.11.13-.2c.04-.09.08-.2.11-.31.03-.12.06-.24.08-.36.02-.12.04-.24.05-.34ZM789.64,339.28c-.03.22-.07.44-.12.66-.05.22-.11.43-.18.62-.07.19-.15.36-.24.52-.09.15-.19.27-.3.36s-.2.12-.27.1c-.07-.03-.11-.1-.14-.21-.03-.11-.04-.26-.03-.44,0-.18.02-.39.05-.61s.07-.44.12-.66c.05-.22.11-.42.18-.61.07-.19.15-.36.24-.51.09-.15.19-.27.3-.36s.2-.12.27-.1c.07.03.11.09.14.2.03.11.04.26.03.44,0,.18-.02.38-.05.6"/><path id="path74" class="cls-15" d="M791.46,318.96c.12-3.25-1.11-4.54-2.93-3.07-.28.22-.56.51-.84.83.27-4.81-1.45-6.92-4.17-4.72s-5.47,7.86-6.65,13.34c-2.01,1.94-4,6.46-4.55,10.45-.58,4.22.67,6.26,2.79,4.55l5.76-4.65c.29-.24.6-.9.68-1.49s-.09-.87-.39-.63l-5.76,4.65c-1.53,1.24-2.44-.24-2.02-3.29s2.01-6.55,3.55-7.79c.56-.45,1.05-.56,1.43-.31.2.13.55-.26.78-.88.23-.62.26-1.22.06-1.35-.35-.23-.79-.23-1.27-.01.98-4.32,3.17-8.74,5.3-10.46,2.26-1.83,3.67.05,3.34,4.18-.16.27-.33.55-.49.85-.29.53-.43,1.24-.32,1.57.11.33.42.17.71-.36.57-1.07,1.18-1.88,1.77-2.36,1.32-1.06,2.21-.13,2.12,2.22-.02.46.16.63.4.43.03-.03.07-.06.11-.11.3-.35.57-1.06.59-1.58"/><path id="path32-2" class="cls-15" d="M942.64,512.04l-.18-2.44-1.16.56-.83-.5,2.05-.95,1.39-.1.24,3.32-1.51.11"/><path id="path34-2" class="cls-15" d="M948.73,509.92c0-.1-.03-.22-.06-.34-.03-.12-.09-.24-.16-.34-.07-.1-.18-.19-.31-.25-.13-.06-.29-.09-.49-.08s-.36.06-.48.15c-.12.08-.21.18-.28.29-.06.11-.1.23-.11.36-.02.13-.02.24-.01.35s.03.22.06.35c.03.13.09.24.17.34.08.1.18.19.32.25.13.06.3.09.5.08s.36-.06.48-.15c.12-.08.21-.18.27-.29.06-.11.1-.23.11-.36.01-.13.02-.25,0-.35ZM950.29,509.81c.02.23-.01.46-.09.68-.07.22-.21.42-.39.59-.19.18-.44.32-.75.44-.31.12-.69.19-1.15.23s-.84.01-1.17-.06c-.33-.07-.6-.18-.81-.33-.21-.15-.37-.32-.48-.53-.11-.21-.17-.43-.18-.66s.01-.46.09-.68c.08-.22.21-.41.4-.59.19-.17.44-.32.76-.43.31-.12.7-.19,1.15-.22s.84-.01,1.17.06c.32.07.59.18.8.32.21.14.37.32.47.52.11.2.17.42.18.66"/><path id="path36-2" class="cls-15" d="M958.92,510.86l-.18-2.44-1.16.56-.83-.5,2.05-.95,1.39-.1.24,3.32-1.51.11"/><path id="path38-2" class="cls-15" d="M965.01,508.75c0-.1-.03-.22-.06-.34-.03-.12-.09-.24-.16-.34-.07-.1-.18-.19-.31-.25-.13-.06-.29-.09-.49-.08s-.36.06-.48.15c-.12.08-.21.18-.28.29-.06.11-.1.23-.11.36-.02.13-.02.24-.01.35s.03.22.06.35c.03.13.09.24.17.34.08.1.18.19.32.25.13.06.3.09.5.08s.36-.06.48-.15c.12-.08.21-.18.27-.29.06-.11.1-.23.11-.36.01-.13.02-.25,0-.35ZM966.57,508.63c.02.23-.01.46-.09.68-.07.22-.21.42-.39.59-.19.18-.44.32-.75.44-.31.12-.69.19-1.15.23s-.84.01-1.17-.06c-.33-.07-.6-.18-.81-.33-.21-.15-.37-.32-.48-.53-.11-.21-.17-.43-.18-.66s.01-.46.09-.68c.08-.22.21-.41.4-.59s.44-.32.76-.43c.31-.12.7-.19,1.15-.22s.84-.01,1.17.06c.32.07.59.18.8.32.21.14.37.32.47.52.11.2.17.42.18.66"/><path id="path40-2" class="cls-15" d="M942.88,517.28l-.18-2.44-1.16.56-.83-.5,2.05-.95,1.39-.1.24,3.32-1.51.11"/><path id="path42-2" class="cls-15" d="M948.21,516.89l-.18-2.44-1.16.56-.83-.5,2.05-.95,1.39-.1.24,3.32-1.51.11"/><path id="path44-2" class="cls-15" d="M953.52,516.51l-.18-2.44-1.16.56-.83-.5,2.05-.95,1.39-.1.24,3.32-1.51.11"/><path id="path46-2" class="cls-15" d="M959.89,514.37c0-.1-.03-.22-.06-.34-.03-.12-.09-.24-.16-.34-.07-.1-.18-.19-.31-.25-.13-.07-.29-.09-.49-.08s-.36.06-.48.15c-.12.08-.21.18-.27.29-.06.11-.1.23-.11.36-.02.13-.02.24-.01.34s.03.22.06.35c.03.12.09.24.17.34.08.1.18.19.31.25.13.06.3.09.5.08s.36-.06.48-.15c.12-.08.21-.18.27-.29.06-.11.1-.23.11-.36.02-.13.02-.25.01-.35ZM961.45,514.26c.02.23-.01.46-.09.68-.08.22-.21.42-.39.59-.19.18-.44.32-.75.44-.31.12-.69.19-1.14.23s-.84.01-1.17-.06c-.33-.07-.6-.18-.81-.33-.21-.15-.37-.32-.48-.53-.11-.21-.17-.43-.18-.66s.01-.46.09-.68c.08-.22.21-.41.4-.58.19-.17.44-.32.76-.43.31-.12.7-.19,1.15-.22s.84-.01,1.16.06c.32.07.59.18.8.32.21.14.37.32.48.52.11.2.17.42.18.66"/><path id="path48-2" class="cls-15" d="M946.21,520.78l-.13-1.77-.84.41-.6-.36,1.49-.69,1.01-.07.18,2.41-1.1.08"/><path id="path50-2" class="cls-15" d="M953.92,520.22l-.13-1.77-.84.41-.6-.36,1.49-.69,1.01-.07.18,2.41-1.1.08"/><path id="path52-2" class="cls-15" d="M943.05,519.79c0-.07-.02-.16-.04-.25-.02-.09-.06-.17-.12-.25-.05-.07-.13-.14-.22-.18-.09-.05-.21-.06-.36-.05s-.26.05-.35.11c-.09.06-.15.13-.2.21-.05.08-.07.17-.08.26-.01.09-.01.18,0,.25s.02.16.05.25c.02.09.06.17.12.25.06.07.13.13.23.18.09.05.22.06.36.05s.26-.04.35-.1c.09-.06.15-.13.19-.21.04-.08.07-.17.08-.26.01-.09.01-.18,0-.26ZM944.18,519.71c.01.17,0,.34-.06.49-.05.16-.15.3-.29.43-.14.13-.32.23-.54.32-.22.09-.5.14-.83.16s-.61,0-.85-.04c-.24-.05-.43-.13-.59-.24-.16-.11-.27-.23-.35-.38-.08-.15-.12-.31-.13-.48s0-.33.06-.49c.05-.16.15-.3.29-.43.14-.12.32-.23.55-.32.23-.08.51-.14.84-.16s.61,0,.85.04c.24.05.43.13.58.23.15.1.27.23.35.38.08.15.12.31.13.48"/><path id="path54-2" class="cls-15" d="M950.79,519.23c0-.07-.02-.16-.04-.25-.02-.09-.06-.17-.12-.25-.05-.07-.13-.14-.22-.18-.09-.05-.21-.06-.36-.05s-.26.05-.35.11c-.09.06-.16.13-.2.21-.05.08-.07.17-.08.26-.01.09-.01.18,0,.25s.02.16.05.25c.02.09.06.17.12.25.05.07.13.14.23.18.1.05.22.06.36.05s.26-.04.35-.1c.09-.06.15-.13.19-.21.04-.08.07-.17.08-.26.01-.09.01-.18,0-.26ZM951.92,519.15c.01.17,0,.34-.06.49-.06.16-.15.3-.29.43-.14.13-.32.23-.54.32-.23.09-.5.14-.83.16s-.61,0-.85-.04c-.24-.05-.43-.13-.59-.24-.16-.11-.27-.23-.35-.38-.08-.15-.12-.31-.13-.48s0-.33.06-.49c.05-.16.15-.3.29-.43.14-.12.32-.23.55-.32.23-.08.51-.14.84-.16s.61,0,.85.04c.24.05.43.13.58.23.15.1.27.23.35.38.08.15.12.31.13.48"/><path id="path56-2" class="cls-15" d="M966.74,519.3l-.13-1.77-.84.41-.6-.36,1.49-.69,1.01-.07.18,2.41-1.1.08"/><path id="path58-2" class="cls-15" d="M963.62,518.3c0-.07-.02-.16-.04-.25-.02-.09-.06-.17-.12-.25-.05-.07-.13-.14-.22-.18-.09-.05-.21-.06-.36-.05s-.26.05-.35.11c-.09.06-.15.13-.2.21-.04.08-.07.17-.08.26-.01.09-.01.18,0,.25s.02.16.05.25c.02.09.06.17.12.25.06.07.13.13.23.18.1.05.22.06.36.05s.26-.04.35-.1c.09-.06.15-.13.19-.21.04-.08.07-.17.08-.26.01-.09.01-.18,0-.26ZM964.75,518.22c.01.17,0,.34-.06.49-.06.16-.15.3-.29.43-.14.13-.32.23-.54.32-.23.09-.5.14-.83.16s-.61,0-.85-.04c-.24-.05-.43-.13-.59-.24-.16-.11-.27-.23-.35-.38-.08-.15-.12-.31-.13-.48s0-.33.06-.49c.05-.16.15-.3.29-.43.14-.12.32-.23.55-.32.23-.08.51-.14.84-.16s.61,0,.85.04c.24.05.43.13.58.23.15.1.27.23.35.38.08.15.12.31.13.48"/><path id="path60-2" class="cls-15" d="M962.72,522.44l-.13-1.77-.84.41-.6-.36,1.49-.69,1.01-.07.18,2.41-1.1.08"/><path id="path62-2" class="cls-15" d="M959.59,521.45c0-.07-.02-.16-.04-.25-.02-.09-.06-.17-.12-.25-.05-.07-.13-.14-.22-.18-.09-.05-.21-.06-.36-.05s-.26.05-.35.11c-.09.06-.15.13-.2.21-.04.08-.07.17-.08.26-.01.09-.01.18,0,.25s.02.16.05.25c.02.09.06.17.12.25.06.07.13.14.23.18.1.05.22.06.36.05s.26-.04.35-.1c.09-.06.15-.13.19-.21.04-.08.07-.17.08-.26.01-.09.01-.18,0-.26ZM960.73,521.37c.01.17,0,.33-.06.49-.05.16-.15.3-.29.43-.14.13-.32.23-.54.32-.23.09-.5.14-.83.16s-.61,0-.85-.04c-.24-.05-.43-.13-.59-.24-.16-.11-.27-.23-.35-.38-.08-.15-.12-.31-.13-.48s.01-.33.06-.49c.05-.16.15-.3.29-.43.14-.12.32-.23.55-.32.23-.08.51-.14.84-.16s.61,0,.85.04c.24.05.43.13.58.23.15.1.27.23.35.38.08.15.12.31.13.48"/><path id="path64-2" class="cls-15" d="M944.88,523.69l-.09-1.23-.58.28-.42-.25,1.03-.48.7-.05.12,1.67-.76.05"/><path id="path66-2" class="cls-15" d="M942.72,523.01c0-.05-.01-.11-.03-.17-.02-.06-.04-.12-.08-.17-.04-.05-.09-.09-.15-.13-.07-.03-.15-.05-.25-.04s-.18.03-.24.07c-.06.04-.11.09-.14.15-.03.06-.05.12-.06.18,0,.06,0,.12,0,.17s.01.11.03.17c.02.06.04.12.08.17.04.05.09.09.16.13.07.03.15.05.25.04s.18-.03.24-.07c.06-.04.1-.09.13-.15.03-.06.05-.12.06-.18,0-.06,0-.12,0-.18ZM943.5,522.95c0,.12,0,.23-.04.34-.04.11-.1.21-.2.3-.09.09-.22.16-.38.22-.16.06-.35.1-.57.11s-.43,0-.59-.03c-.16-.04-.3-.09-.41-.16-.11-.07-.19-.16-.24-.27-.05-.1-.08-.21-.09-.33s0-.23.04-.34c.04-.11.1-.21.2-.29.1-.09.22-.16.38-.22.16-.06.35-.1.58-.11s.42,0,.59.03c.16.03.3.09.4.16.11.07.19.16.24.26.05.1.08.21.09.33"/><path id="path68-2" class="cls-15" d="M954.51,525.16l-.09-1.23-.58.28-.42-.25,1.03-.48.7-.05.12,1.67-.76.05"/><path id="path70-2" class="cls-15" d="M952.35,524.47c0-.05-.01-.11-.03-.17-.02-.06-.04-.12-.08-.17s-.09-.09-.15-.13c-.07-.03-.15-.05-.25-.04s-.18.03-.24.07c-.06.04-.11.09-.14.15-.03.06-.05.12-.06.18,0,.06-.01.12,0,.17s.02.11.03.17c.02.06.04.12.08.17.04.05.09.09.16.13.07.03.15.04.25.04s.18-.03.24-.07c.06-.04.1-.09.13-.15.03-.06.05-.12.06-.18,0-.06.01-.12,0-.18ZM953.13,524.41c0,.12,0,.23-.04.34-.04.11-.1.21-.2.3-.09.09-.22.16-.38.22-.16.06-.35.1-.58.11s-.42,0-.59-.03c-.17-.04-.3-.09-.41-.17-.11-.07-.19-.16-.24-.27-.05-.1-.09-.21-.09-.33s0-.23.04-.34c.04-.11.1-.21.2-.29.1-.09.22-.16.38-.22.16-.06.35-.1.58-.11s.42,0,.59.03c.16.04.3.09.4.16.11.07.19.16.24.26.05.1.09.21.09.33"/><path id="path72-2" class="cls-15" d="M967.28,520.89c0-.07-.02-.16-.04-.25-.02-.09-.06-.17-.12-.25-.05-.07-.13-.14-.22-.18-.09-.05-.21-.06-.36-.05s-.26.05-.35.11c-.09.06-.15.13-.2.21-.04.08-.07.17-.08.26-.01.09-.01.18,0,.25s.02.16.04.25c.02.09.06.17.12.25.06.07.13.14.23.18.1.05.22.06.36.05s.26-.04.35-.1c.09-.06.15-.13.19-.21.04-.08.07-.17.08-.26.01-.09.01-.18,0-.26ZM968.41,520.81c.01.17,0,.34-.06.49-.05.16-.15.3-.29.43-.14.13-.32.23-.54.32-.23.09-.5.14-.83.16s-.61,0-.85-.04c-.24-.05-.43-.13-.59-.24-.16-.11-.27-.23-.35-.38-.08-.15-.12-.31-.13-.48s0-.33.06-.49c.05-.16.15-.3.29-.43.14-.12.32-.23.55-.32.23-.08.51-.14.84-.16s.61,0,.85.04c.24.05.43.13.58.23.15.1.27.23.35.38.08.15.12.31.13.48"/><path id="path74-2" class="cls-15" d="M963.98,504.77c-1.27-2.64-6.09-4.27-11.46-3.89-.82.06-1.62.16-2.39.31-1.59-3.87-8.49-6.41-16.5-5.83s-14.35,4.02-15.46,8.02c-5.75.69-10.11,3.53-9.88,6.59.24,3.24,5.52,5.5,11.77,5.05l16.97-1.22c.87-.06,1.54-.48,1.51-.92s-.76-.76-1.63-.7l-16.97,1.22c-4.53.33-8.35-1.31-8.52-3.65-.17-2.34,3.37-4.51,7.9-4.84,1.65-.12,3.25.02,4.64.39.74.2,1.7.03,2.16-.37.46-.41.23-.9-.5-1.1-1.31-.36-2.77-.55-4.28-.59,1.06-3.14,6.14-5.8,12.4-6.25,6.67-.48,12.38,1.72,13.42,5-.41.15-.81.31-1.2.48-.68.31-.8.83-.27,1.16.53.33,1.52.34,2.2.03,1.36-.63,3-1.02,4.74-1.15,3.88-.28,7.37.9,8.29,2.81.18.37.85.59,1.58.54.1,0,.21-.02.31-.04.84-.15,1.36-.62,1.15-1.05"/><path id="path32-3" class="cls-15" d="M301.73,398.92l3.11-.59-1.3-.4.26-.47,2.24.71.8.6-4.23.8-.87-.65"/><path id="path34-3" class="cls-15" d="M307.44,401.18c.13-.02.27-.06.42-.1.14-.04.27-.09.37-.14.1-.05.16-.12.18-.19.02-.07-.02-.15-.14-.23s-.26-.15-.42-.18c-.17-.04-.34-.06-.52-.06-.18,0-.35,0-.53.02-.17.02-.33.04-.46.07s-.28.06-.42.1c-.15.04-.27.09-.37.14-.1.06-.16.12-.18.19-.02.07.03.15.14.24s.25.15.42.18c.16.04.34.05.51.06.18,0,.35,0,.53-.03.17-.02.33-.04.47-.07ZM308.34,401.85c-.3.06-.61.09-.93.1-.32.01-.64,0-.96-.05-.32-.05-.63-.13-.94-.24-.3-.11-.59-.27-.85-.46s-.42-.37-.49-.53c-.06-.16-.05-.3.04-.43.09-.13.24-.23.46-.32.22-.09.48-.16.78-.22s.61-.09.93-.1c.32-.01.64,0,.96.06.32.05.63.13.93.25.3.11.59.27.85.46s.42.37.49.53c.06.16.05.3-.03.42-.09.12-.24.23-.46.32-.22.09-.47.16-.77.22"/><path id="path36-3" class="cls-15" d="M311.12,405.9l3.11-.59-1.3-.4.26-.47,2.24.71.8.6-4.23.8-.87-.65"/><path id="path38-3" class="cls-15" d="M316.83,408.17c.13-.02.27-.06.42-.1.14-.04.27-.09.37-.14.1-.05.16-.12.18-.19.02-.07-.02-.15-.14-.23s-.26-.15-.42-.18c-.17-.04-.34-.06-.52-.06-.18,0-.35,0-.53.02-.17.02-.33.04-.46.07s-.28.06-.42.1c-.15.04-.27.09-.37.14-.1.06-.16.12-.18.19-.02.07.03.15.14.24s.25.15.42.18c.16.04.34.05.51.06.18,0,.35,0,.53-.03.17-.02.33-.04.47-.07ZM317.73,408.84c-.3.06-.61.09-.93.1-.32.01-.64,0-.96-.05-.32-.05-.63-.13-.94-.24-.3-.11-.59-.27-.85-.46s-.42-.37-.49-.53c-.06-.16-.05-.3.04-.43.09-.13.24-.23.46-.32.22-.09.48-.16.78-.22s.61-.09.93-.1c.32-.01.64,0,.96.06s.63.13.93.25c.3.11.59.27.85.46s.42.37.49.53c.06.16.05.3-.03.42-.09.12-.24.23-.46.32-.22.09-.47.16-.77.22"/><path id="path40-3" class="cls-15" d="M294.99,400.11l3.11-.59-1.3-.4.26-.47,2.24.71.8.6-4.23.8-.87-.65"/><path id="path42-3" class="cls-15" d="M298.06,402.4l3.11-.59-1.3-.4.26-.47,2.24.71.8.6-4.23.8-.87-.65"/><path id="path44-3" class="cls-15" d="M301.13,404.68l3.11-.59-1.3-.4.26-.47,2.24.71.8.6-4.23.8-.87-.65"/><path id="path46-3" class="cls-15" d="M307,407.06c.13-.02.27-.06.41-.1.15-.04.27-.09.37-.14.1-.05.16-.12.18-.19.02-.07-.02-.15-.14-.23s-.26-.15-.42-.18c-.17-.04-.34-.06-.52-.06-.18,0-.35,0-.53.02-.17.02-.33.04-.46.07s-.28.06-.42.1c-.15.04-.27.09-.37.14-.1.06-.16.12-.18.19-.02.07.03.15.14.24s.25.15.42.18c.16.04.34.05.51.06.18,0,.35,0,.53-.03.18-.02.33-.04.47-.07ZM307.9,407.73c-.3.06-.61.09-.93.1-.32.01-.65,0-.97-.05-.32-.05-.63-.13-.94-.24-.31-.11-.59-.27-.85-.46s-.42-.37-.49-.53c-.06-.16-.05-.3.04-.43.09-.13.24-.23.46-.32.22-.09.48-.16.78-.22s.61-.09.93-.1c.32-.01.64,0,.96.06.32.05.63.13.93.25.3.11.59.27.85.46s.42.37.49.53c.06.16.05.3-.04.42-.09.12-.24.23-.45.32-.22.09-.47.16-.77.22"/><path id="path48-3" class="cls-15" d="M292.01,402.32l2.26-.43-.94-.29.19-.34,1.63.52.58.43-3.07.58-.63-.47"/><path id="path50-3" class="cls-15" d="M296.45,405.62l2.26-.43-.94-.29.19-.34,1.63.52.58.43-3.07.58-.63-.47"/><path id="path52-3" class="cls-15" d="M291.78,400.71c.1-.02.2-.04.3-.07.1-.03.19-.06.27-.1.07-.04.12-.08.13-.14.02-.05-.02-.11-.1-.17s-.19-.11-.31-.13c-.12-.03-.25-.04-.37-.04-.13,0-.26,0-.38.02-.13.01-.24.03-.33.05s-.2.04-.31.07c-.11.03-.2.06-.27.11-.07.04-.11.09-.13.14-.02.05.02.11.1.17s.18.11.3.13c.12.03.24.04.37.04.13,0,.26,0,.38-.02.13-.01.24-.03.34-.05ZM292.43,401.19c-.22.04-.44.07-.68.07-.23,0-.47,0-.7-.04-.23-.03-.46-.09-.68-.17-.22-.08-.43-.19-.62-.33s-.31-.27-.35-.39c-.05-.12-.04-.22.03-.31.06-.09.18-.17.33-.23.16-.07.35-.12.56-.16s.44-.07.68-.07c.23,0,.47,0,.7.04.23.04.46.09.68.18.22.08.43.2.62.34s.31.27.35.38c.05.12.04.22-.02.31-.06.09-.17.17-.33.23-.16.06-.35.12-.56.16"/><path id="path54-3" class="cls-15" d="M296.25,404.03c.1-.02.2-.04.3-.07.1-.03.19-.06.27-.1.07-.04.12-.08.13-.14.02-.05-.02-.11-.1-.17s-.19-.11-.31-.13c-.12-.03-.25-.04-.37-.04-.13,0-.26,0-.38.02-.13.01-.24.03-.33.05s-.2.04-.31.07c-.11.03-.2.06-.27.11-.07.04-.11.09-.13.14-.02.05.02.11.1.17s.18.11.3.13c.12.03.24.04.37.04.13,0,.26,0,.38-.02.13-.01.24-.03.34-.05ZM296.9,404.52c-.22.04-.44.07-.68.07-.24,0-.47,0-.7-.04-.23-.03-.46-.09-.68-.17-.22-.08-.43-.19-.62-.33s-.31-.27-.35-.39c-.05-.12-.04-.22.03-.31.06-.09.18-.17.33-.23.16-.07.35-.12.56-.16s.44-.07.68-.07c.23,0,.47,0,.7.04.23.04.46.09.68.18.22.08.43.2.62.34s.31.27.35.38c.05.12.04.22-.03.31-.06.09-.17.17-.33.23-.16.06-.34.12-.56.16"/><path id="path56-3" class="cls-15" d="M303.85,411.13l2.26-.43-.94-.29.18-.34,1.63.52.58.43-3.07.58-.63-.47"/><path id="path58-3" class="cls-15" d="M303.64,409.53c.1-.02.2-.04.3-.07.1-.03.19-.06.27-.1.07-.04.12-.08.13-.14.02-.05-.02-.11-.1-.17s-.19-.11-.31-.13c-.12-.03-.25-.04-.38-.04-.13,0-.26,0-.38.02-.13.01-.24.03-.33.05s-.2.04-.31.07c-.11.03-.2.06-.27.1-.07.04-.11.09-.13.14-.02.05.02.11.1.17s.18.11.3.13c.12.03.24.04.37.04.13,0,.26,0,.38-.02.13-.01.24-.03.34-.05ZM304.29,410.02c-.22.04-.44.07-.68.07-.24,0-.47,0-.7-.04-.23-.03-.46-.09-.68-.17-.22-.08-.43-.19-.62-.33s-.31-.27-.35-.39c-.05-.12-.04-.22.03-.31.06-.09.18-.17.33-.23.16-.07.35-.12.56-.16s.44-.07.68-.07c.23,0,.47,0,.7.04.23.04.46.09.68.18.22.08.43.2.62.34s.31.27.35.38c.05.12.04.22-.03.31-.06.09-.17.17-.33.23-.16.06-.35.12-.56.16"/><path id="path60-3" class="cls-15" d="M297.79,409.99l2.26-.43-.94-.29.19-.34,1.63.52.58.43-3.07.58-.63-.47"/><path id="path62-3" class="cls-15" d="M297.58,408.4c.1-.02.2-.04.3-.07.1-.03.19-.06.27-.1.07-.04.12-.08.13-.14.02-.05-.02-.11-.1-.17s-.19-.11-.31-.13c-.12-.03-.25-.04-.37-.04-.13,0-.26,0-.38.02-.13.01-.24.03-.33.05s-.2.04-.31.07c-.11.03-.2.06-.27.11-.07.04-.11.09-.13.14-.02.05.02.11.1.17s.18.11.3.13c.12.03.24.04.37.04.13,0,.26,0,.38-.02.13-.01.24-.03.34-.05ZM298.23,408.89c-.22.04-.44.07-.68.07-.23,0-.47,0-.7-.04-.23-.03-.46-.09-.68-.17-.22-.08-.43-.19-.62-.33s-.31-.27-.35-.39c-.05-.12-.04-.22.03-.31.06-.09.18-.17.34-.23.16-.07.35-.12.56-.16s.44-.07.68-.07c.23,0,.47,0,.7.04.23.04.46.09.68.18.22.08.43.2.62.34s.31.27.35.38c.05.12.04.22-.03.31-.06.09-.17.17-.33.23-.16.06-.34.12-.56.16"/><path id="path64-3" class="cls-15" d="M287.55,402.33l1.56-.29-.65-.2.13-.24,1.13.36.4.3-2.13.4-.44-.33"/><path id="path66-3" class="cls-15" d="M287.41,401.23c.07-.01.14-.03.21-.05.07-.02.13-.04.18-.07.05-.03.08-.06.09-.09.01-.04-.01-.08-.07-.12s-.13-.07-.21-.09c-.08-.02-.17-.03-.26-.03-.09,0-.18,0-.26.01-.09.01-.16.02-.23.03s-.14.03-.21.05c-.07.02-.14.04-.18.07-.05.03-.08.06-.09.1-.01.04.01.08.07.12s.13.07.21.09c.08.02.17.03.26.03.09,0,.18,0,.27-.01.09-.01.17-.02.23-.03ZM287.86,401.57c-.15.03-.31.05-.47.05-.16,0-.32,0-.49-.03-.16-.02-.32-.06-.47-.12-.15-.06-.3-.13-.43-.23s-.21-.19-.24-.27c-.03-.08-.03-.15.02-.22.04-.06.12-.12.23-.16.11-.05.24-.08.39-.11s.31-.05.47-.05c.16,0,.32,0,.48.03.16.02.32.07.47.12.15.06.3.14.43.23s.21.19.24.27c.03.08.03.15-.02.21-.04.06-.12.12-.23.16-.11.04-.24.08-.39.11"/><path id="path68-3" class="cls-15" d="M290.28,406.92l1.56-.29-.65-.2.13-.24,1.13.36.4.3-2.13.4-.44-.33"/><path id="path70-3" class="cls-15" d="M290.14,405.81c.07-.01.14-.03.21-.05.07-.02.13-.04.18-.07s.08-.06.09-.09c.01-.04-.01-.08-.07-.12s-.13-.07-.21-.09c-.08-.02-.17-.03-.26-.03-.09,0-.18,0-.26.01-.09,0-.16.02-.23.03s-.14.03-.21.05c-.07.02-.14.04-.19.07-.05.03-.08.06-.09.1-.01.04.01.08.07.12s.13.07.21.09c.08.02.17.03.26.03.09,0,.18,0,.27-.01.09,0,.17-.02.23-.03ZM290.59,406.15c-.15.03-.31.05-.47.05-.16,0-.32,0-.48-.03-.16-.02-.32-.06-.47-.12-.15-.06-.29-.13-.43-.23s-.21-.19-.25-.27c-.03-.08-.02-.15.02-.22.04-.06.12-.12.23-.16.11-.05.24-.08.39-.11s.31-.05.47-.05c.16,0,.32,0,.48.03.16.02.32.07.47.12.15.06.29.14.43.23s.21.19.25.27c.03.08.03.15-.02.21-.04.06-.12.12-.23.16-.11.05-.24.08-.39.11"/><path id="path72-3" class="cls-15" d="M302.02,411.7c.1-.02.2-.04.3-.07.1-.03.19-.06.27-.1.07-.04.12-.08.13-.14.02-.05-.02-.11-.1-.17s-.19-.11-.31-.13c-.12-.03-.25-.04-.37-.04-.13,0-.26,0-.38.02-.13.01-.24.03-.33.05s-.2.04-.31.07c-.11.03-.2.06-.27.11-.07.04-.11.09-.13.14-.02.05.02.11.1.17s.18.11.3.13c.12.03.24.04.37.04.13,0,.26,0,.38-.02.13-.01.24-.03.34-.05ZM302.67,412.18c-.22.04-.44.07-.68.07-.23,0-.47,0-.7-.04-.23-.03-.46-.09-.68-.17-.22-.08-.43-.19-.62-.33s-.31-.27-.35-.39c-.05-.12-.04-.22.03-.31.06-.09.18-.17.34-.23.16-.07.35-.12.56-.16s.44-.07.68-.07c.23,0,.47,0,.7.04.23.04.46.1.68.18.22.08.43.2.62.34s.31.27.35.38c.05.12.04.22-.03.31-.06.09-.17.17-.33.23-.16.06-.34.12-.56.16"/><path id="path74-3" class="cls-15" d="M321.53,406.88c2.84-1.11,2.66-3.59-.43-5.89-.47-.35-1-.68-1.56-1,4.29-1.51,4.3-5.1-.32-8.54-4.58-3.41-12.18-5.54-17.96-5.19-3.67-2.41-9.5-3.75-13.4-3.02-4.13.78-4.55,3.59-.94,6.28l9.79,7.28c.5.37,1.37.59,1.94.48s.63-.5.13-.87l-9.79-7.28c-2.61-1.94-2.3-3.98.68-4.54,2.99-.56,7.54.56,10.15,2.5.95.71,1.54,1.45,1.72,2.14.1.37.78.76,1.53.88.75.12,1.29-.08,1.19-.45-.17-.66-.61-1.34-1.29-2.02,4.62-.18,10.56,1.52,14.17,4.21,3.85,2.86,3.72,5.85-.08,7-.39-.15-.8-.3-1.21-.43-.74-.24-1.48-.18-1.65.12-.17.31.29.75,1.03.98,1.48.48,2.79,1.12,3.79,1.87,2.24,1.67,2.37,3.46.32,4.26-.4.16-.36.5.06.81.06.04.13.09.2.13.6.34,1.47.47,1.93.29"/></g></svg>